<svg width="13" height="14" viewBox="0 0 13 14" fill="none" xmlns="http://www.w3.org/2000/svg">
<path d="M6.22744 0.898438C2.78678 0.898438 0 3.7576 0 7.2839C0 10.1057 1.78416 12.4986 4.25801 13.3423C4.56938 13.4024 4.68355 13.2048 4.68355 13.0353C4.68355 12.8836 4.67836 12.4818 4.67577 11.9495C2.9435 12.3345 2.57816 11.0929 2.57816 11.0929C2.29481 10.3559 1.88536 10.1588 1.88536 10.1588C1.32125 9.76293 1.92895 9.77105 1.92895 9.77105C2.55429 9.81545 2.88278 10.429 2.88278 10.429C3.43806 11.4053 4.34052 11.1232 4.69653 10.9602C4.75257 10.547 4.91293 10.266 5.09093 10.1062C3.70792 9.9465 2.25433 9.39741 2.25433 6.95087C2.25433 6.25395 2.49565 5.68429 2.89524 5.23754C2.82518 5.07617 2.615 4.4269 2.94973 3.5475C2.94973 3.5475 3.47128 3.37638 4.66227 4.20218C5.16047 4.0603 5.6898 3.98991 6.21913 3.98666C6.74847 3.98991 7.2778 4.0603 7.77599 4.20218C8.95921 3.37638 9.48075 3.5475 9.48075 3.5475C9.81548 4.4269 9.6053 5.07617 9.54303 5.23754C9.94003 5.68429 10.1813 6.25395 10.1813 6.95087C10.1813 9.40391 8.72568 9.94379 7.34007 10.1008C7.55803 10.2925 7.76042 10.684 7.76042 11.2824C7.76042 12.1369 7.75264 12.8235 7.75264 13.0309C7.75264 13.1983 7.86162 13.3981 8.18078 13.3342C10.6723 12.4959 12.4549 10.1014 12.4549 7.2839C12.4549 3.7576 9.66654 0.898438 6.22744 0.898438Z" fill="white"/>
</svg>
