<svg width="13" height="13" viewBox="0 0 13 13" fill="none" xmlns="http://www.w3.org/2000/svg">
<path d="M11.5566 0.499023H0.898254C0.402138 0.499023 0 0.901161 0 1.39728V12.0556C0 12.5518 0.402138 12.9539 0.898254 12.9539H11.5566C12.0527 12.9539 12.4549 12.5518 12.4549 12.0556V1.39728C12.4549 0.901161 12.0527 0.499023 11.5566 0.499023V0.499023ZM4.41782 9.91316H2.90115V5.35024H4.41782V9.91316ZM3.65953 4.72717H3.64965C3.14071 4.72717 2.81154 4.37682 2.81154 3.93896C2.81154 3.49121 3.15078 3.15055 3.6696 3.15055C4.18843 3.15055 4.50771 3.49121 4.51759 3.93896C4.51759 4.37682 4.18843 4.72717 3.65953 4.72717ZM9.88659 9.91316H8.37011V7.47211C8.37011 6.85864 8.15052 6.44025 7.60176 6.44025C7.1828 6.44025 6.93327 6.72247 6.82361 6.9949C6.78351 7.09239 6.77373 7.22866 6.77373 7.36502V9.91316H5.25716C5.25716 9.91316 5.27702 5.77832 5.25716 5.35024H6.77373V5.9963C6.97527 5.68539 7.33588 5.24315 8.14054 5.24315C9.13838 5.24315 9.88659 5.89529 9.88659 7.29679V9.91316Z" fill="white"/>
</svg>
