<svg width="84" height="84" viewBox="0 0 84 84" fill="none" xmlns="http://www.w3.org/2000/svg">
<rect x="2" y="2" width="80" height="80" fill="black" stroke="white" stroke-width="4"/>
<path d="M19.5832 23.7117H15.7306V31.1396H15.6197L10.5754 23.7117H7.30489V37.9023H11.1574V30.4467H11.2406L16.3681 37.9023H19.5832V23.7117ZM24.4266 38.0686C25.8124 38.0686 26.8587 37.5975 27.5031 36.4057H27.5862V37.9023H31.1616V30.613C31.1616 28.6451 29.2977 27.1207 26.2558 27.1207C23.0754 27.1207 21.5094 28.7837 21.3778 30.7239H24.8977C24.9878 30.0656 25.4729 29.7538 26.2004 29.7538C26.8656 29.7538 27.3368 30.0587 27.3368 30.613V30.6407C27.3368 31.2574 26.6577 31.4514 24.87 31.5831C22.6735 31.7424 20.962 32.6293 20.962 34.9644C20.962 37.0847 22.3894 38.0686 24.4266 38.0686ZM25.6738 35.6573C25.0225 35.6573 24.5651 35.3386 24.5651 34.7427C24.5651 34.1953 24.9532 33.7726 25.8401 33.6341C26.4498 33.537 26.9626 33.4123 27.3645 33.246V34.1329C27.3645 35.103 26.5399 35.6573 25.6738 35.6573ZM42.7175 30.7239C42.6205 28.4719 40.7497 27.1207 37.6732 27.1207C34.6313 27.1207 32.7535 28.368 32.7674 30.5853C32.7535 32.2621 33.8414 33.3361 36.0102 33.7172L37.8949 34.0498C38.7264 34.2022 39.1006 34.424 39.1144 34.8258C39.1006 35.2693 38.5947 35.5188 37.8949 35.5188C37.0288 35.5188 36.419 35.1446 36.3151 34.4655H32.518C32.7258 36.6482 34.6105 38.0964 37.8672 38.0964C40.812 38.0964 42.9808 36.662 42.9947 34.3824C42.9808 32.8095 41.9276 31.8949 39.7519 31.4999L37.59 31.1119C36.7793 30.9664 36.5507 30.6753 36.5645 30.3635C36.5507 29.9201 37.0981 29.6706 37.7563 29.6706C38.5116 29.6706 39.1421 30.0725 39.1976 30.7239H42.7175ZM54.1886 30.7239C54.0915 28.4719 52.2207 27.1207 49.1442 27.1207C46.1024 27.1207 44.2246 28.368 44.2384 30.5853C44.2246 32.2621 45.3124 33.3361 47.4812 33.7172L49.3659 34.0498C50.1974 34.2022 50.5716 34.424 50.5854 34.8258C50.5716 35.2693 50.0658 35.5188 49.3659 35.5188C48.4998 35.5188 47.89 35.1446 47.7861 34.4655H43.989C44.1969 36.6482 46.0816 38.0964 49.3382 38.0964C52.2831 38.0964 54.4519 36.662 54.4657 34.3824C54.4519 32.8095 53.3986 31.8949 51.2229 31.4999L49.0611 31.1119C48.2504 30.9664 48.0217 30.6753 48.0356 30.3635C48.0217 29.9201 48.5691 29.6706 49.2274 29.6706C49.9826 29.6706 50.6132 30.0725 50.6686 30.7239H54.1886ZM61.031 38.0964C63.9828 38.0964 65.8813 36.6828 66.2416 34.4655H62.7494C62.5277 35.0684 61.8971 35.4079 61.1141 35.4079C59.9778 35.4079 59.3126 34.6595 59.3126 33.6341V33.4678H66.2416V32.5808C66.2416 29.1925 64.1629 27.1207 60.9478 27.1207C57.6496 27.1207 55.5432 29.3103 55.5432 32.6086C55.5432 36.0523 57.6219 38.0964 61.031 38.0964ZM59.3126 31.3613C59.3334 30.4398 60.0956 29.8092 61.031 29.8092C61.9803 29.8092 62.7009 30.4467 62.7217 31.3613H59.3126ZM67.8024 37.9023H71.6272V32.3591C71.6272 31.1396 72.4656 30.3358 73.5951 30.3358C73.99 30.3358 74.6275 30.3982 75.0086 30.5298V27.2663C74.7037 27.1762 74.3711 27.1207 74.0385 27.1207C72.9022 27.1207 72.0153 27.7859 71.6272 29.2826H71.5164V27.2593H67.8024V37.9023Z" fill="white"/>
<path d="M6.64804 56.9268H12.711C15.8983 56.9268 17.5959 55.2638 17.5959 53.0049C17.5959 50.9054 16.0923 49.6374 14.4779 49.5612V49.4226C15.9538 49.09 17.0416 48.0437 17.0416 46.3738C17.0416 44.2466 15.4618 42.7361 12.3299 42.7361H6.64804V56.9268ZM9.64832 54.4739V50.7045H12.1636C13.6048 50.7045 14.4987 51.536 14.4987 52.707C14.4987 53.774 13.7711 54.4739 12.0943 54.4739H9.64832ZM9.64832 48.6743V45.1612H11.928C13.2584 45.1612 14.0136 45.8472 14.0136 46.8727C14.0136 47.9952 13.099 48.6743 11.8725 48.6743H9.64832ZM24.9285 57.1346C27.5615 57.1346 29.3353 55.8528 29.7511 53.878L27.021 53.6978C26.7231 54.5085 25.9609 54.9312 24.977 54.9312C23.5011 54.9312 22.5657 53.9542 22.5657 52.3674V52.3605H29.8134V51.5498C29.8134 47.9329 27.6239 46.1452 24.8107 46.1452C21.6787 46.1452 19.6485 48.3694 19.6485 51.6538C19.6485 55.0282 21.651 57.1346 24.9285 57.1346ZM22.5657 50.5312C22.628 49.3187 23.5496 48.3486 24.8592 48.3486C26.141 48.3486 27.028 49.2632 27.0349 50.5312H22.5657ZM35.2769 50.7738C35.2838 49.4018 36.1014 48.598 37.2932 48.598C38.4781 48.598 39.1918 49.3741 39.1848 50.6768V56.9268H42.1366V50.1501C42.1366 47.6696 40.6815 46.1452 38.4642 46.1452C36.8844 46.1452 35.7411 46.9212 35.263 48.1615H35.1383V46.2837H32.3251V56.9268H35.2769V50.7738ZM46.7737 57.1069C47.6607 57.1069 48.4298 56.3655 48.4367 55.4439C48.4298 54.5362 47.6607 53.7948 46.7737 53.7948C45.8591 53.7948 45.1038 54.5362 45.1108 55.4439C45.1038 56.3655 45.8591 57.1069 46.7737 57.1069Z" fill="#525252"/>
</svg>
